<svg xmlns="http://www.w3.org/2000/svg" viewBox="0 0 290 440"><defs><style>.cls-1{fill:none;stroke:#515151;stroke-miterlimit:10;stroke-width:6px;}.cls-2{fill:#bcbcbc;}.cls-3{fill:#ffce00;}.cls-4{fill:#0000d8;}.cls-5{fill:#6b6b6b;}.cls-6{fill:#000049;}.cls-7{fill:#fff;}.cls-8{fill:#e2e2e2;}</style></defs><g id="Calque_2" data-name="Calque 2"><g id="Calque_1-2" data-name="Calque 1"><line class="cls-1" x1="145" y1="9" x2="145" y2="121"/><rect class="cls-2" y="85" width="290" height="141" rx="63.03"/><circle class="cls-3" cx="145" cy="13" r="13"/><circle class="cls-4" cx="145.32" cy="34.34" r="20.49"/><path class="cls-2" d="M79.85,248A201.29,201.29,0,0,0,70,311.5c0,71,33.8,128.5,75.5,128.5S221,382.46,221,311.5a201.59,201.59,0,0,0-9.86-63.5Z"/><ellipse class="cls-5" cx="145.5" cy="248.5" rx="65.5" ry="10.5"/><rect class="cls-6" x="45" y="102" width="200" height="103.26" rx="47"/><circle class="cls-3" cx="181.8" cy="143.29" r="20"/><circle class="cls-6" cx="186.03" cy="146.45" r="10.46"/><circle class="cls-3" cx="107.52" cy="142.68" r="20"/><circle class="cls-6" cx="111.75" cy="145.84" r="10.46"/><circle class="cls-7" cx="177.39" cy="138.69" r="4.69"/><circle class="cls-7" cx="102.79" cy="138.46" r="4.69"/><path class="cls-8" d="M128,172.8a17.12,17.12,0,0,0,33.37,0Z"/></g></g></svg>