<svg xmlns="http://www.w3.org/2000/svg" viewBox="0 0 816.38 816.38"><defs><style>.cls-1{fill:#1a1a99;}.cls-2{fill:#030621;}.cls-3{fill:none;stroke:#000;stroke-miterlimit:10;stroke-width:6px;}.cls-4{fill:#bcbcbc;}.cls-5{fill:#000049;}.cls-6{fill:#ffce00;}.cls-7{fill:#fff;}.cls-8{fill:#e2e2e2;}</style></defs><g id="Calque_2" data-name="Calque 2"><g id="Calque_1-2" data-name="Calque 1"><path class="cls-1" d="M407.65,814C185,813.71,4.67,633,5,410.27S186,7.29,408.7,7.58s403,181,402.68,403.74A403.21,403.21,0,0,1,407.65,814Z"/><path class="cls-2" d="M407.65,10c220.64,0,399.5,178.86,399.5,399.5S628.29,809,407.65,809,8.15,630.14,8.15,409.5,187,10,407.65,10m0-10C182.21.3-.3,183.3,0,408.73S183.3,816.68,408.73,816.38,816.68,633.09,816.38,407.65A408.19,408.19,0,0,0,407.65,0Z"/><line class="cls-3" x1="407.33" y1="79.52" x2="407.33" y2="284.46"/><rect class="cls-4" x="142.02" y="210.58" width="530.63" height="279.42" rx="139.71"/><circle class="cls-5" cx="407.33" cy="86.84" r="23.79"/><circle class="cls-6" cx="407.92" cy="125.9" r="37.49"/><path class="cls-5" d="M318.83,249.69h177a94.48,94.48,0,0,1,94.47,94.47h0a94.48,94.48,0,0,1-94.47,94.47h-177a94.47,94.47,0,0,1-94.47-94.47h0A94.47,94.47,0,0,1,318.83,249.69Z"/><circle class="cls-6" cx="338.76" cy="325.26" r="36.6"/><circle class="cls-5" cx="331.02" cy="331.03" r="19.14"/><circle class="cls-6" cx="474.69" cy="324.14" r="36.6"/><circle class="cls-5" cx="466.94" cy="329.91" r="19.14"/><circle class="cls-7" cx="346.84" cy="316.84" r="8.59"/><circle class="cls-7" cx="483.33" cy="316.41" r="8.59"/><path class="cls-8" d="M376.27,379.25a31.33,31.33,0,0,0,61.06,0Z"/><path class="cls-4" d="M495.73,531h-175c-16.62,0-31,11.17-34.7,26.87a364.16,364.16,0,0,0-9.55,83.92c0,60.18,13.93,114.81,36.6,155.08a402.67,402.67,0,0,0,190.61-.63c22.45-40.21,36.24-94.59,36.24-154.45a364.71,364.71,0,0,0-9.55-83.92C526.7,542.17,512.35,531,495.73,531Z"/></g></g></svg>